<svg width="633" height="403" viewBox="0 0 633 403" fill="none" xmlns="http://www.w3.org/2000/svg">
<g clip-path="url(#clip0)">
<path d="M632.963 231.831C632.341 264.317 622.267 295.993 603.872 323.305C585.477 350.616 559.489 372.48 528.826 386.444C504.719 397.379 478.368 403.035 451.689 403C447.853 403 444.044 402.886 440.263 402.659C357.835 397.717 275.165 397.717 192.737 402.659C188.958 402.884 185.149 402.998 181.311 403C150.35 403.043 119.903 395.421 92.9323 380.874C65.2278 365.917 42.0845 344.3 25.7917 318.159C9.49886 292.019 0.621126 262.261 0.0366634 231.831C-1.97368 134.027 78.9426 54.0637 180.465 53.6133C234.534 53.3759 283.126 75.9461 316.5 111.907C349.874 75.9461 398.466 53.3759 452.535 53.6133C554.057 54.0637 634.974 134.027 632.963 231.831Z" fill="#F2F2F2"/>
<path d="M528.826 386.444C504.719 397.379 478.368 403.035 451.689 403C447.853 403 444.044 402.886 440.263 402.659C357.835 397.717 275.165 397.717 192.737 402.659C188.958 402.884 185.149 402.998 181.311 403C150.35 403.043 119.903 395.421 92.9321 380.874C133.731 363.965 213.419 352.479 305.049 352.479C406.418 352.479 493.175 366.533 528.826 386.444Z" fill="#2F2E41"/>
<path d="M403.261 144.355C401.203 142.659 398.691 141.545 396.009 141.139C393.326 140.732 390.578 141.049 388.073 142.053C380.516 145.206 377.225 154.063 377.754 161.934C378.282 169.805 381.71 177.189 383.93 184.785C386.912 194.988 387.686 206.045 384.191 216.098C380.696 226.15 372.473 235.009 361.806 237.851C351.906 240.489 341.403 237.844 331.502 235.207" stroke="#3F3D56" stroke-miterlimit="10"/>
<path d="M421.186 128.627C421.252 127.544 421.094 126.459 420.722 125.434C420.349 124.409 419.769 123.465 419.015 122.654C418.261 121.844 417.348 121.184 416.327 120.711C415.306 120.239 414.198 119.964 413.065 119.901C411.933 119.839 410.799 119.99 409.728 120.347C408.658 120.704 407.671 121.26 406.824 121.982C405.978 122.704 405.288 123.578 404.795 124.555C404.302 125.532 404.015 126.593 403.95 127.676L402.956 144.167L420.192 145.118C421.324 145.181 422.457 145.029 423.528 144.672C424.598 144.316 425.585 143.761 426.431 143.039C427.278 142.318 427.967 141.444 428.461 140.467C428.954 139.491 429.242 138.431 429.307 137.348C429.372 136.265 429.214 135.181 428.841 134.157C428.468 133.132 427.888 132.188 427.134 131.379C426.38 130.569 425.467 129.909 424.446 129.437C423.425 128.965 422.318 128.69 421.186 128.627Z" fill="#5FB2BA"/>
<path d="M402.652 171.566C402.784 169.379 402.003 167.232 400.48 165.596C398.957 163.961 396.817 162.971 394.531 162.845C392.246 162.719 390.001 163.466 388.292 164.924C386.583 166.381 385.548 168.428 385.416 170.615L384.422 187.106L401.658 188.057C403.943 188.181 406.186 187.433 407.894 185.976C409.602 184.519 410.636 182.472 410.768 180.286C410.899 178.101 410.119 175.954 408.597 174.319C407.075 172.683 404.937 171.693 402.652 171.566Z" fill="#5FB2BA"/>
<path d="M377.818 125.568C376.949 124.871 375.945 124.344 374.863 124.018C373.781 123.692 372.643 123.573 371.513 123.668C370.384 123.763 369.284 124.07 368.279 124.572C367.273 125.073 366.381 125.759 365.652 126.591C364.924 127.423 364.374 128.384 364.034 129.419C363.694 130.454 363.57 131.543 363.67 132.624C363.771 133.705 364.092 134.757 364.617 135.719C365.142 136.68 365.86 137.534 366.73 138.23L379.964 148.838L391.051 136.177C391.78 135.345 392.331 134.385 392.672 133.35C393.013 132.315 393.137 131.226 393.038 130.145C392.938 129.064 392.617 128.012 392.093 127.05C391.569 126.088 390.852 125.234 389.982 124.537C389.113 123.84 388.109 123.314 387.027 122.989C385.945 122.663 384.806 122.545 383.677 122.641C382.547 122.737 381.448 123.045 380.443 123.547C379.437 124.049 378.545 124.736 377.818 125.568H377.818Z" fill="#5FB2BA"/>
<path d="M480.905 136.836C479.393 134.677 477.283 132.964 474.81 131.888C472.338 130.813 469.601 130.417 466.907 130.747C458.745 131.86 453.107 139.559 451.425 147.28C449.743 155.001 450.992 162.992 451.017 170.879C451.05 181.473 448.718 192.329 442.551 201.127C436.383 209.926 425.991 216.369 414.918 216.389C404.641 216.408 395.254 211.183 386.445 206.117" stroke="#3F3D56" stroke-miterlimit="10"/>
<path d="M502.561 126.246C502.926 125.219 503.075 124.133 503.001 123.051C502.927 121.968 502.63 120.911 502.129 119.938C501.628 118.965 500.931 118.096 500.079 117.381C499.226 116.666 498.235 116.119 497.162 115.77C496.088 115.421 494.954 115.278 493.822 115.349C492.691 115.42 491.586 115.704 490.569 116.183C489.552 116.663 488.644 117.33 487.897 118.145C487.15 118.961 486.577 119.909 486.213 120.936L480.664 136.578L497.012 141.887C498.085 142.236 499.22 142.379 500.351 142.308C501.482 142.237 502.588 141.954 503.604 141.474C504.621 140.994 505.529 140.328 506.277 139.512C507.024 138.697 507.596 137.748 507.961 136.721C508.325 135.694 508.474 134.609 508.4 133.526C508.326 132.444 508.03 131.386 507.529 130.413C507.027 129.441 506.33 128.572 505.478 127.857C504.626 127.142 503.635 126.594 502.561 126.246Z" fill="#5FB2BA"/>
<path d="M472.743 162.909C473.479 160.835 473.323 158.566 472.311 156.601C471.298 154.637 469.511 153.138 467.343 152.434C465.176 151.729 462.804 151.878 460.751 152.847C458.697 153.816 457.13 155.525 456.395 157.6L450.845 173.241L467.193 178.551C469.361 179.255 471.733 179.106 473.786 178.137C475.839 177.169 477.406 175.459 478.142 173.385C478.878 171.311 478.723 169.042 477.71 167.077C476.698 165.113 474.911 163.613 472.743 162.909Z" fill="#5FB2BA"/>
<path d="M461.611 112.244C460.968 111.351 460.147 110.587 459.195 109.997C458.243 109.407 457.179 109.002 456.064 108.806C454.949 108.61 453.804 108.625 452.695 108.853C451.586 109.08 450.534 109.514 449.601 110.13C448.667 110.746 447.87 111.532 447.254 112.443C446.638 113.354 446.216 114.373 446.011 115.44C445.807 116.507 445.824 117.603 446.062 118.663C446.3 119.724 446.755 120.73 447.399 121.623L457.201 135.22L471.413 125.842C473.298 124.598 474.589 122.689 475.003 120.535C475.416 118.38 474.918 116.157 473.618 114.354C472.318 112.551 470.323 111.315 468.071 110.92C465.82 110.524 463.496 111.001 461.611 112.244Z" fill="#5FB2BA"/>
<path d="M443.703 26.7245C446.386 26.32 449.133 26.6385 451.638 27.6445C454.142 28.6504 456.304 30.304 457.882 32.4197C462.57 38.9072 460.493 48.095 455.712 54.5203C450.931 60.9456 443.953 65.4954 437.885 70.8345C429.735 78.0057 422.991 87.0163 420.429 97.323C417.868 107.63 419.984 119.304 427.488 127.094C434.453 134.324 444.837 137.367 454.705 140.114" stroke="#3F3D56" stroke-miterlimit="10"/>
<path d="M437.12 4.32321C437.66 3.3698 438.392 2.52757 439.272 1.84462C440.153 1.16166 441.166 0.651345 442.252 0.342815C443.339 0.0342845 444.479 -0.0664243 445.606 0.0464447C446.734 0.159314 447.827 0.48355 448.823 1.00064C449.82 1.51772 450.7 2.21753 451.414 3.06011C452.128 3.90269 452.661 4.87153 452.983 5.91133C453.306 6.95113 453.411 8.04152 453.293 9.12024C453.175 10.199 452.836 11.2449 452.296 12.1983L444.065 26.7185L428.889 18.8435C427.892 18.3264 427.012 17.6266 426.298 16.784C425.585 15.9414 425.051 14.9726 424.729 13.9328C424.406 12.893 424.301 11.8026 424.419 10.7238C424.537 9.64512 424.876 8.5992 425.416 7.64579C425.957 6.69238 426.688 5.85015 427.569 5.16719C428.449 4.48423 429.462 3.97392 430.549 3.66539C431.636 3.35686 432.775 3.25615 433.903 3.36902C435.03 3.48189 436.123 3.80612 437.12 4.32321V4.32321Z" fill="#5FB2BA"/>
<path d="M429.244 50.1641C429.785 49.2107 430.516 48.3684 431.397 47.6855C432.277 47.0025 433.29 46.4922 434.377 46.1837C435.464 45.8751 436.603 45.7744 437.731 45.8873C438.858 46.0002 439.951 46.3244 440.948 46.8415C441.944 47.3586 442.824 48.0584 443.538 48.901C444.252 49.7435 444.785 50.7124 445.108 51.7522C445.43 52.792 445.536 53.8824 445.418 54.9611C445.3 56.0398 444.961 57.0857 444.42 58.0391L436.19 72.5594L421.013 64.6843C420.017 64.1672 419.137 63.4674 418.423 62.6248C417.709 61.7822 417.176 60.8134 416.853 59.7736C416.531 58.7338 416.425 57.6434 416.543 56.5647C416.661 55.486 417 54.4401 417.541 53.4866C418.081 52.5332 418.813 51.691 419.693 51.008C420.574 50.3251 421.587 49.8148 422.673 49.5062C423.76 49.1977 424.9 49.097 426.027 49.2099C427.155 49.3227 428.248 49.647 429.244 50.1641L429.244 50.1641Z" fill="#5FB2BA"/>
<path d="M475.672 23.5726C476.795 23.4173 477.938 23.4752 479.037 23.7429C480.136 24.0107 481.17 24.483 482.078 25.133C482.986 25.7829 483.751 26.5977 484.33 27.5308C484.909 28.464 485.29 29.4971 485.452 30.5712C485.613 31.6453 485.552 32.7393 485.271 33.7906C484.99 34.842 484.496 35.8302 483.816 36.6986C483.136 37.5671 482.284 38.2988 481.308 38.852C480.332 39.4052 479.252 39.769 478.13 39.9227L461.041 42.2738L458.584 25.9237C458.258 23.7555 458.845 21.5523 460.217 19.7987C461.589 18.0451 463.633 16.8848 465.899 16.5731C468.165 16.2613 470.468 16.8236 472.301 18.1362C474.134 19.4489 475.346 21.4044 475.672 23.5726Z" fill="#5FB2BA"/>
<path d="M296.142 201.524H280.237V209.437H296.142V201.524Z" fill="#FBBEBE"/>
<path opacity="0.1" d="M296.142 201.524H280.237V209.437H296.142V201.524Z" fill="black"/>
<path d="M250.973 87.6998C262.216 87.6998 271.331 78.9792 271.331 68.2218C271.331 57.4644 262.216 48.7438 250.973 48.7438C239.73 48.7438 230.615 57.4644 230.615 68.2218C230.615 78.9792 239.73 87.6998 250.973 87.6998Z" fill="#2F2E41"/>
<path d="M297.097 197.568C297.097 197.568 290.735 195.742 289.462 196.351C288.19 196.959 293.916 201.829 293.916 201.829L297.097 197.568Z" fill="#FBBEBE"/>
<path opacity="0.1" d="M297.097 197.568C297.097 197.568 290.735 195.742 289.462 196.351C288.19 196.959 293.916 201.829 293.916 201.829L297.097 197.568Z" fill="black"/>
<path d="M253.2 353.392C253.2 353.392 267.832 355.218 270.377 355.218C272.922 355.218 279.92 357.653 276.102 360.696C272.285 363.74 248.11 368 244.929 366.174C241.749 364.348 237.295 358.87 240.476 358.261C243.657 357.653 253.2 353.392 253.2 353.392Z" fill="#3F3D56"/>
<path d="M227.116 375.913L222.027 384.435L228.389 387.478L240.476 389.913L246.838 382L244.293 372.87L227.116 375.913Z" fill="#FBBEBE"/>
<path d="M260.834 313.219C260.834 313.219 252.564 346.696 253.836 348.522C255.108 350.349 257.653 355.218 255.108 357.044C252.564 358.87 242.385 359.479 242.385 359.479L245.566 341.827L250.019 320.523L260.834 313.219Z" fill="#2F2E41"/>
<path d="M237.931 242.611L246.201 278.523C246.201 278.523 247.474 296.175 244.293 302.871C241.112 309.566 223.935 380.174 223.935 380.174C223.935 380.174 241.748 380.783 245.565 378.957C249.382 377.131 255.82 334.97 255.82 334.97C255.82 334.97 276.738 294.958 276.102 287.045C275.466 279.132 279.263 238.936 273.865 235.904C268.468 232.872 237.931 242.611 237.931 242.611Z" fill="#2F2E41"/>
<path d="M239.204 386.87L246.838 379.566C246.838 379.566 267.196 389.305 270.377 389.913C273.557 390.522 280.556 395.391 273.557 397.218C266.559 399.044 240.476 397.826 234.114 397.218C227.752 396.609 215.029 396 216.937 392.348C218.846 388.696 222.027 375.913 222.027 375.913C222.027 375.913 223.785 373.588 224.814 376.577C225.844 379.566 226.48 383.826 229.025 383.826C231.569 383.826 239.204 386.87 239.204 386.87Z" fill="#3F3D56"/>
<path d="M337.176 232.263L354.989 231.046L367.077 237.133L365.804 244.437L360.715 245.654C360.715 245.654 346.719 240.176 338.448 242.002C330.178 243.828 337.176 232.263 337.176 232.263Z" fill="#A0616A"/>
<path d="M358.17 234.698C358.17 234.698 365.168 242.021 358.17 244.751C358.17 244.751 359.442 246.872 364.532 247.48C369.621 248.089 376.619 252.35 378.528 252.35C380.436 252.35 388.707 251.132 383.617 244.437C378.528 237.741 358.17 223.133 358.17 223.133C358.17 223.133 352.444 220.698 350.536 225.568C348.627 230.437 347.62 231.549 347.62 231.549C347.62 231.549 356.898 233.481 358.17 234.698Z" fill="#2F2E41"/>
<path d="M304.73 293.132C304.73 293.132 310.456 313.827 310.456 315.045C310.456 316.262 318.09 310.175 318.09 310.175L319.363 299.219C319.363 299.219 314.273 294.349 314.273 291.306C314.273 288.262 304.73 293.132 304.73 293.132Z" fill="#A0616A"/>
<path d="M316.182 307.74C316.182 307.74 311.729 313.219 308.548 311.393L310.456 332.088C310.456 332.088 311.729 342.436 316.182 338.175C320.635 333.914 325.089 312.61 325.089 312.61C325.089 312.61 331.451 299.827 326.361 298.001C323.472 296.943 320.492 296.128 317.454 295.567C317.454 295.567 317.454 308.349 316.182 307.74Z" fill="#2F2E41"/>
<path d="M274.83 238.35L293.916 276.089C293.916 276.089 300.277 297.393 302.822 298.001C305.367 298.61 314.91 294.349 316.182 293.741C317.454 293.132 305.367 269.393 305.367 265.132C305.367 260.871 290.735 237.133 290.735 237.133L274.83 238.35Z" fill="#FF6584"/>
<path opacity="0.1" d="M274.83 238.35L293.916 276.089C293.916 276.089 300.277 297.393 302.822 298.001C305.367 298.61 314.91 294.349 316.182 293.741C317.454 293.132 305.367 269.393 305.367 265.132C305.367 260.871 290.735 237.133 290.735 237.133L274.83 238.35Z" fill="black"/>
<path d="M288.19 172.612C288.19 172.612 288.826 185.394 286.281 193.916C283.736 202.437 289.462 230.437 289.462 230.437C289.462 230.437 299.005 231.046 301.55 230.437C304.094 229.828 338.448 229.22 340.357 230.437C342.265 231.654 341.629 252.959 340.357 252.35C339.084 251.741 306.003 245.046 290.098 247.48C274.194 249.915 272.285 246.263 271.649 245.046C271.013 243.828 260.198 210.959 260.198 210.959L256.38 195.133L251.291 178.09L254.472 161.655L288.19 172.612Z" fill="#FF6584"/>
<path d="M249.701 93.178C259.187 93.178 266.878 85.82 266.878 76.7434C266.878 67.6669 259.187 60.3089 249.701 60.3089C240.214 60.3089 232.524 67.6669 232.524 76.7434C232.524 85.82 240.214 93.178 249.701 93.178Z" fill="#A0616A"/>
<path d="M217.573 131.83C227.06 131.83 234.75 124.472 234.75 115.395C234.75 106.319 227.06 98.9605 217.573 98.9605C208.087 98.9605 200.396 106.319 200.396 115.395C200.396 124.472 208.087 131.83 217.573 131.83Z" fill="#FBBEBE"/>
<path d="M254.472 88.0042C254.472 88.0042 265.923 95.3084 264.015 99.5692C262.106 103.83 257.017 108.7 257.017 108.7L256.381 115.395L265.923 118.439L290.098 119.656C290.098 119.656 288.826 98.9605 281.192 93.4823C273.558 88.0042 264.651 84.352 263.379 79.4825C262.106 74.613 254.472 88.0042 254.472 88.0042Z" fill="#A0616A"/>
<path d="M286.037 103.018C281.874 95.5762 270.16 96.4805 267.732 104.595C267.414 105.578 267.315 106.614 267.442 107.635C267.568 108.657 267.918 109.642 268.468 110.526C272.922 117.83 276.102 123.308 276.102 123.308L290.098 122.091C290.098 122.091 290.374 110.769 286.037 103.018Z" fill="#A0616A"/>
<path d="M259.108 106.517C259.108 106.517 242.385 116.612 243.657 123.308C244.929 130.004 246.202 141.569 246.202 145.829C246.202 150.09 250.655 163.481 257.017 165.916C263.379 168.351 263.379 161.655 272.285 169.568C281.192 177.481 290.735 181.133 290.098 182.351C289.462 183.568 292.643 171.394 287.554 166.525C282.464 161.655 276.739 147.656 281.828 141.569C286.917 135.482 291.371 119.656 291.371 119.656C291.371 119.656 290.735 116.004 286.917 116.612C283.1 117.221 259.562 114.786 258.289 111.743C257.918 110.883 257.798 109.942 257.942 109.021C258.087 108.101 258.489 107.235 259.108 106.517Z" fill="#2F2E41"/>
<path d="M256.734 111.678C256.734 111.678 274.194 93.4824 276.739 94.091C279.283 94.6997 286.612 101.903 286.612 101.903L276.739 95.3084L256.734 112.704L256.734 111.678Z" fill="#2F2E41"/>
<path d="M232.206 118.439C232.206 118.439 234.595 143.057 237.854 145.356C241.112 147.656 213.12 147.047 213.12 147.047C213.12 147.047 219.482 128.178 215.665 125.743C211.848 123.308 232.206 118.439 232.206 118.439Z" fill="#FBBEBE"/>
<path d="M238.567 138.525C238.567 138.525 216.937 133.047 214.393 136.09C211.848 139.134 206.758 165.307 206.758 165.307C206.758 165.307 209.303 182.959 213.756 195.742C218.21 208.524 223.935 253.567 228.389 253.567C232.842 253.567 240.476 246.872 242.385 246.872C244.293 246.872 255.744 241.393 262.742 242.611C266.762 243.367 270.915 243.158 274.83 242.002C274.83 242.002 271.649 216.437 264.015 209.742C256.381 203.046 252.564 156.786 252.564 156.786C252.564 156.786 241.748 137.308 238.567 138.525Z" fill="#3F3D56"/>
<path d="M271.649 196.351C271.649 196.351 278.883 205.744 286.081 206.221L290.098 206.09C290.098 206.09 283.736 221.915 286.917 222.524C290.098 223.133 299.641 210.959 296.46 204.264C293.279 197.568 283.736 187.22 283.736 187.22L271.649 196.351Z" fill="#FBBEBE"/>
<path d="M297.097 196.351C297.097 196.351 286.281 206.09 290.735 210.35C295.188 214.611 300.914 210.35 300.914 210.35C300.914 210.35 305.367 204.264 297.097 196.351Z" fill="#FBBEBE"/>
<path opacity="0.1" d="M297.097 196.351C297.097 196.351 286.281 206.09 290.735 210.35C295.188 214.611 300.914 210.35 300.914 210.35C300.914 210.35 305.367 204.264 297.097 196.351Z" fill="black"/>
<path d="M255.426 84.0477C266.67 84.0477 275.784 75.3271 275.784 64.5697C275.784 53.8123 266.67 45.0917 255.426 45.0917C244.183 45.0917 235.068 53.8123 235.068 64.5697C235.068 75.3271 244.183 84.0477 255.426 84.0477Z" fill="#2F2E41"/>
<path d="M264.969 59.7002C271.645 59.7002 277.057 54.5223 277.057 48.1351C277.057 41.7479 271.645 36.5701 264.969 36.5701C258.294 36.5701 252.882 41.7479 252.882 48.1351C252.882 54.5223 258.294 59.7002 264.969 59.7002Z" fill="#2F2E41"/>
<path d="M255.426 44.483C255.427 41.6267 256.532 38.8715 258.528 36.7482C260.525 34.6249 263.273 33.2837 266.241 32.9829C265.819 32.9401 265.394 32.9184 264.969 32.9179C263.327 32.917 261.703 33.2359 260.194 33.8554C258.686 34.4749 257.325 35.3819 256.195 36.5211C255.064 37.6603 254.189 39.0078 253.621 40.4815C253.053 41.9551 252.804 43.5241 252.891 45.0925C252.977 46.661 253.397 48.1962 254.124 49.6045C254.851 51.0128 255.87 52.2646 257.119 53.2836C258.368 54.3027 259.822 55.0676 261.39 55.5317C262.958 55.9958 264.609 56.1494 266.241 55.983C263.273 55.6823 260.525 54.3411 258.528 52.2178C256.532 50.0945 255.427 47.3393 255.426 44.483Z" fill="#2F2E41"/>
<path d="M248.747 84.0477C257.706 84.0477 264.969 78.8698 264.969 72.4826C264.969 66.0954 257.706 60.9176 248.747 60.9176C239.787 60.9176 232.524 66.0954 232.524 72.4826C232.524 78.8698 239.787 84.0477 248.747 84.0477Z" fill="#2F2E41"/>
<path d="M218.29 109.294C218.067 110.436 217.537 111.584 217.984 112.761C218.316 113.632 219.124 114.323 219.609 115.149C220.585 116.811 219.938 118.938 218.258 119.59C217.314 119.068 216.205 118.888 215.134 119.084C214.646 119.189 214.215 119.462 213.924 119.851C213.634 120.241 213.503 120.719 213.557 121.194C213.781 122.6 215.493 123.5 216.364 124.754C216.899 125.694 217.259 126.715 217.428 127.773C217.856 129.414 218.611 131.044 218.698 132.686C218.785 134.328 217.95 136.063 216.247 136.298C214.815 136.496 213.276 135.567 212.24 134.44C211.205 133.313 210.506 131.976 209.557 130.789C206.475 126.933 201.207 125.135 197.639 121.636C193.067 117.152 192.099 110.509 193.735 105.215C194.422 102.991 195.558 100.866 197.489 99.5091C199.516 98.0854 202.222 97.6301 204.492 96.5229C206.919 95.3389 208.781 93.445 210.928 91.8991C213.074 90.3531 215.733 89.1136 218.663 89.5305C220.707 89.8213 222.645 90.8856 224.673 91.3876C226.877 91.9639 229.224 91.7789 231.3 90.8649L229.416 92.7995C230.771 93.3137 232.232 93.5254 233.686 93.4186C233.1 94.5671 232.073 95.4546 230.82 95.8956C231.834 96.6548 233.109 97.0224 234.392 96.9259C232.994 98.4546 231.492 100.045 229.337 100.578C228.282 100.839 227.132 100.826 226.043 100.997C223.721 101.36 221.765 102.533 219.869 103.684C218.874 104.288 217.622 104.974 217.629 106.228C217.635 107.273 218.517 108.126 218.29 109.294Z" fill="#2F2E41"/>
<path d="M225.844 144.612C225.844 144.612 220.118 164.699 230.297 168.96C240.476 173.22 261.47 189.046 265.287 194.525C269.105 200.003 273.558 201.829 273.558 201.829C273.558 201.829 288.826 189.655 285.645 186.003C282.464 182.351 269.741 171.394 269.741 171.394C269.741 171.394 237.295 137.917 225.844 144.612Z" fill="#3F3D56"/>
<path d="M276.102 145.221C276.102 145.221 252.73 138.828 245.649 137.764C238.567 136.699 220.118 138.525 223.935 141.569C227.752 144.612 250.019 147.047 250.019 147.047L276.739 156.786L276.102 145.221Z" fill="#A0616A"/>
<path d="M276.102 120.265C276.102 120.265 278.011 132.438 278.011 136.699C278.011 140.96 281.192 144.612 278.647 144.612C276.102 144.612 274.194 142.177 274.194 144.612C274.194 147.047 270.376 161.655 274.194 161.655C278.011 161.655 287.553 159.221 289.462 159.221C291.371 159.221 297.732 158.003 297.096 151.308C296.46 144.612 293.915 137.308 295.188 136.09C296.46 134.873 297.096 128.786 295.824 127.569C294.551 126.351 291.371 118.439 291.371 118.439L276.102 120.265Z" fill="#2F2E41"/>
<g opacity="0.3">
<path opacity="0.3" d="M410.572 244.162C409.398 244.027 408.216 244.344 407.286 245.043C406.356 245.742 405.755 246.766 405.614 247.889C405.473 249.012 405.804 250.143 406.535 251.033C407.265 251.923 408.335 252.498 409.509 252.633L418.363 253.65L419.426 245.179C419.496 244.623 419.451 244.059 419.293 243.52C419.135 242.98 418.867 242.476 418.505 242.035C418.144 241.595 417.695 241.227 417.184 240.952C416.674 240.678 416.112 240.502 415.531 240.435C414.949 240.368 414.36 240.412 413.796 240.563C413.232 240.714 412.705 240.97 412.245 241.316C411.784 241.662 411.4 242.092 411.113 242.58C410.826 243.068 410.642 243.606 410.572 244.162Z" fill="#5FB2BA"/>
</g>
<g opacity="0.3">
<path opacity="0.3" d="M517.279 203.455C516.249 202.901 515.031 202.761 513.893 203.065C512.755 203.37 511.79 204.094 511.21 205.079C510.63 206.064 510.482 207.229 510.799 208.318C511.116 209.407 511.872 210.332 512.9 210.888L520.669 215.077L525.047 207.645C525.336 207.157 525.521 206.619 525.591 206.063C525.662 205.506 525.618 204.942 525.461 204.402C525.304 203.862 525.037 203.356 524.675 202.915C524.314 202.474 523.865 202.105 523.355 201.83C522.845 201.554 522.282 201.378 521.701 201.311C521.119 201.243 520.529 201.287 519.965 201.438C519.401 201.588 518.873 201.844 518.412 202.191C517.951 202.537 517.566 202.967 517.279 203.455Z" fill="#5FB2BA"/>
</g>
<g opacity="0.3">
<path opacity="0.3" d="M469.737 261.205C469.156 261.139 468.567 261.182 468.003 261.333C467.439 261.484 466.912 261.74 466.451 262.086C465.991 262.432 465.606 262.862 465.319 263.35C465.032 263.838 464.849 264.376 464.779 264.932C464.709 265.488 464.754 266.052 464.912 266.592C465.07 267.131 465.338 267.636 465.7 268.076C466.061 268.517 466.51 268.885 467.021 269.159C467.531 269.434 468.093 269.61 468.674 269.676L477.528 270.694L478.591 262.223C478.732 261.099 478.401 259.968 477.67 259.079C476.94 258.189 475.87 257.613 474.696 257.478C473.522 257.343 472.34 257.66 471.41 258.359C470.48 259.058 469.878 260.082 469.737 261.205Z" fill="#5FB2BA"/>
</g>
<g opacity="0.5">
<path opacity="0.5" d="M116.214 144.693C116.128 144.846 116.083 145.017 116.083 145.191C116.083 145.365 116.128 145.536 116.214 145.689C116.32 145.837 116.417 145.991 116.504 146.15C116.696 146.606 116.362 147.104 116.022 147.477C115.809 147.712 115.568 148.032 115.71 148.315C115.777 148.42 115.862 148.512 115.962 148.588C116.188 148.798 116.353 149.061 116.442 149.35C116.532 149.639 116.541 149.945 116.471 150.239C116.401 150.533 116.252 150.805 116.04 151.028C115.828 151.251 115.56 151.418 115.261 151.513" stroke="#F55F44" stroke-miterlimit="10"/>
</g>
</g>
<defs>
<clipPath id="clip0">
<rect width="633" height="403" fill="white"/>
</clipPath>
</defs>
</svg>
